# xmcd
#
# Track frame offsets: 
#        150
#        10917
#        23300
#        35367
#        48127
#        58722
#        71877
#        84732
#        105315
#        120557
#        139085
#        150595
#        166902
#        181502
#        195895
#        213560
#        228912
#        244707
#        264545
#        280612
#        297172
#        317552
#        328252
#        343810
#
# Disc length: 4784 seconds
#
# Revision: 7
# Processed by: cddbd v1.5.2PL0 Copyright (c) Steve Scherf et al.
# Submitted via: ExactAudioCopy v0.99pb4
#
DISCID=4112ae18
DTITLE=Various Artist - The Stax Story [CD3] - Finger-Snappin' Good
DYEAR=2000
DGENRE=R&B/Soul
TTITLE0=Booker T. and The MGs - Soul Limbo
TTITLE1=Eddie Floyd - I've Never Found A Girl (To Love Me Like You Do)
TTITLE2=Linda Lyndell - What A Man
TTITLE3=Jimmy Hughes - I Like Everything About You
TTITLE4=William Bell - I Forgot To Be Your Lover
TTITLE5=Carla Thomas - I Like What You're Doing (To Me)
TTITLE6=The Emotions - So I Can Love You
TTITLE7=Issac Hayes - Walk On By
TTITLE8=Roebuck "Pops" Staples - Black Boy
TTITLE9=Mavis Staples - I Have Learned To Do Without You
TTITLE10=The T.S.U Toronados - Play The Music Toronadoes
TTITLE11=Isaac Hayes - Never Can Say Goodbye
TTITLE12=Rufus Thomas - The Breakdown (Part 1)
TTITLE13=The Bar-Kays - Son Of Shaft
TTITLE14=Little Milton - That's What Love Will Make You Do
TTITLE15=The Dramatics - In The Rain
TTITLE16=Soul Children - Hearsay
TTITLE17=Isaac Hayes and David Porter - Ain't That Loving You (For More 
TTITLE17=Reasons Than One)
TTITLE18=The Temprees - Dedicated To The One I Love
TTITLE19=Albert King - Breaking Up Somebody's Home
TTITLE20=Johnnie Taylor - I Believe In You (You Believe In Me)
TTITLE21=Veda Brown - Short Stopping
TTITLE22=Johnnie Taylor - Cheaper To Keep Her
TTITLE23=The Staple Singers - If You're Ready (Come Go With Me)
EXTD=Label: Fantasy, Inc. - Stax Records\n4SCD-4429-2
EXTT0=
EXTT1=
EXTT2=
EXTT3=
EXTT4=
EXTT5=
EXTT6=
EXTT7=
EXTT8=
EXTT9=
EXTT10=
EXTT11=
EXTT12=
EXTT13=
EXTT14=
EXTT15=
EXTT16=
EXTT17=
EXTT18=
EXTT19=
EXTT20=
EXTT21=
EXTT22=
EXTT23=
PLAYORDER=
